<svg width="950" height="250" xmlns="http://www.w3.org/2000/svg">
 <g>
  <path fill-opacity="0.75" d="m-0.6559,114.1c0,0 0.83656,0.48 1.39427,1.3c0.55771,0.82 0.83657,2.1 1.39428,2.8c0.55771,0.7 0.83656,0.16 1.39427,0.7c0.55771,0.54 0.83657,1.32 1.39428,2c0.55771,0.68 0.83656,0.86 1.39427,1.4c0.55771,0.54 0.83657,0.76 1.39428,1.3c0.55771,0.54 0.83656,0.58 1.39427,1.4c0.55771,0.82 0.83657,1.88 1.39428,2.7c0.55771,0.82 0.83656,0.98 1.39427,1.4c0.55771,0.42 0.83656,0.16 1.39427,0.7c0.55771,0.54 0.83657,1.32 1.39428,2c0.55771,0.68 0.83656,1.4 1.39427,1.4c0.55771,0 0.83657,0 1.39428,0c0.55771,0 0.83656,1.18 1.39427,2c0.55771,0.82 0.83657,1.54 1.39428,2.1c0.55771,0.56 0.83656,0.3 1.39427,0.7c0.55771,0.4 0.83657,0.48 1.39428,1.3c0.55771,0.82 0.83656,1.98 1.39427,2.8c0.55771,0.82 0.83657,1.3 1.39428,1.3c0.55771,0 0.83656,0 1.39427,0c0.55771,0 0.83656,0.28 1.39427,0.7c0.55771,0.42 0.83657,1.4 1.39428,1.4c0.55771,0 0.83656,0 1.39427,0c0.55771,0 0.83657,0.62 1.39428,1.3c0.55771,0.68 0.83656,1.42 1.39427,2.1c0.55771,0.68 0.83657,0.62 1.39428,1.3c0.55771,0.68 0.83656,1.4 1.39427,2.1c0.55771,0.7 0.83657,1.4 1.39428,1.4c0.55771,0 0.83656,0 1.39427,0c0.55771,0 0.83657,0.6 1.39428,0.6c0.55771,0 0.83656,0 1.39427,0c0.55771,0 0.83656,1.4 1.39427,1.4c0.55771,0 0.83657,0 1.39428,0c0.55771,0 0.83656,0.7 1.39427,0.7c0.55771,0 0.83657,0 1.39428,0c0.55771,0 0.83656,0 1.39427,0c0.55771,0 0.83657,0 1.39428,0c0.55771,0 0.83656,-0.7 1.39427,-0.7c0.55771,0 0.83657,0 1.39428,0c0.55771,0 0.83656,0 1.39427,0c0.55771,0 0.83657,-0.42 1.39428,-0.7c0.55771,-0.28 0.83656,-0.44 1.39427,-0.7c0.55771,-0.26 0.83657,-0.2 1.39427,-0.6c0.55771,-0.4 0.83657,-0.98 1.39428,-1.4c0.55771,-0.42 0.83656,-0.02 1.39427,-0.7c0.55771,-0.68 0.83657,-2.7 1.39428,-2.7c0.55771,0 0.83656,0 1.39427,0c0.55771,0 0.83657,-0.14 1.39428,-0.7c0.55771,-0.56 0.83656,-2.1 1.39427,-2.1c0.55771,0 0.83657,0.98 1.39428,1.4c0.55771,0.42 0.83656,0.7 1.39427,0.7c0.55771,0 0.83657,-0.58 1.39428,-1.4c0.55771,-0.82 0.83656,-2.7 1.39427,-2.7c0.55771,0 0.83657,0 1.39428,0.7c0.5577,0.7 0.83656,4.1 1.39427,4.1c0.55771,0 0.83656,-1.42 1.39427,-2.1c0.55771,-0.68 0.83657,-1.3 1.39428,-1.3c0.55771,0 0.83656,1.3 1.39427,1.3c0.55771,0 0.83657,0 1.39428,0c0.55771,0 0.83656,2.1 1.39427,2.1c0.55771,0 0.83657,-2.1 1.39428,-2.1c0.55771,0 0.83656,2.1 1.39427,2.1c0.55771,0 0.83657,-2.1 1.39428,-2.1c0.55771,0 0.83656,0.7 1.39427,0.7c0.55771,0 0.83657,0 1.39428,0c0.5577,0 0.83656,-1.4 1.39427,-1.4c0.55771,0 0.83656,0 1.39427,0c0.55771,0 0.83657,0 1.39428,0c0.55771,0 0.83656,0.42 1.39427,0.7c0.55771,0.28 0.83657,0.42 1.39428,0.7c0.55771,0.28 0.83656,0.7 1.39427,0.7c0.55771,0 0.83657,-0.7 1.39428,-0.7c0.55771,0 0.83656,0.42 1.39427,0.7c0.55771,0.28 0.83657,0.42 1.39428,0.7c0.55771,0.28 0.83656,0.7 1.39427,0.7c0.55771,0 0.83657,-0.7 1.39428,-0.7c0.55771,0 0.83656,0.9 1.39427,1.3c0.55771,0.4 0.83656,0.7 1.39427,0.7c0.55771,0 0.83657,0 1.39428,0c0.55771,0 0.83656,2.1 1.39427,2.1c0.55771,0 0.83657,-0.7 1.39428,-0.7c0.55771,0 0.83656,0 1.39427,0c0.55771,0 0.83657,0 1.39428,0c0.55771,0 0.83656,0 1.39427,0c0.55771,0 0.83657,0.42 1.39428,0.7c0.55771,0.28 0.83656,0.3 1.39427,0.7c0.55771,0.4 0.83657,1.3 1.39428,1.3c0.55771,0 0.83656,0 1.39427,0c0.55771,0 0.83656,0 1.39427,0c0.55771,0 0.83657,0.98 1.39428,1.4c0.55771,0.42 0.83656,0.3 1.39427,0.7c0.55771,0.4 0.83657,1.3 1.39428,1.3c0.55771,0 0.83656,0 1.39427,0c0.55771,0 0.83657,0.42 1.39428,0.7c0.55771,0.28 0.83656,0.16 1.39427,0.7c0.55771,0.54 0.83657,1.32 1.39428,2c0.55771,0.68 0.83656,0.84 1.39427,1.4c0.55771,0.56 0.83657,0.86 1.39428,1.4c0.55771,0.54 0.83656,0.76 1.39427,1.3c0.55771,0.54 0.83656,0.84 1.39427,1.4c0.55771,0.56 0.83657,0.98 1.39428,1.4c0.55771,0.42 0.83656,0.3 1.39427,0.7c0.55771,0.4 0.83657,0.62 1.39428,1.3c0.55771,0.68 0.83656,1.54 1.39427,2.1c0.55771,0.56 0.83657,0.44 1.39428,0.7c0.55771,0.26 0.83656,0.34 1.39427,0.6c0.55771,0.26 0.83657,0.28 1.39428,0.7c0.55771,0.42 0.83656,0.98 1.39427,1.4c0.55771,0.42 0.83657,0.3 1.39428,0.7c0.55771,0.4 0.83656,1.3 1.39427,1.3c0.55771,0 0.83656,0 1.39427,0c0.55771,0 0.83657,0.42 1.39428,0.7c0.55771,0.28 0.83656,0.42 1.39427,0.7c0.55771,0.28 0.83657,0.7 1.39428,0.7c0.55771,0 0.83656,0 1.39427,0c0.55771,0 0.83657,1.3 1.39428,1.3c0.55771,0 0.83656,-0.6 1.39427,-0.6c0.55771,0 0.83657,0 1.39428,0c0.55771,0 0.83656,0.6 1.39427,0.6c0.55771,0 0.83657,0 1.39428,0c0.55771,0 0.83656,-0.6 1.39427,-0.6c0.55771,0 0.83656,0.6 1.39427,0.6c0.55771,0 0.83657,-0.34 1.39428,-0.6c0.55771,-0.26 0.83656,-0.42 1.39427,-0.7c0.55771,-0.28 0.83657,-0.7 1.39428,-0.7c0.55771,0 0.83656,0 1.39427,0c0.55771,0 0.83657,-0.42 1.39428,-0.7c0.55771,-0.28 0.83656,-0.3 1.39427,-0.7c0.55771,-0.4 0.83657,-0.9 1.39428,-1.3c0.55771,-0.4 0.83656,-0.7 1.39427,-0.7c0.55771,0 0.83657,0 1.39428,0c0.55771,0 0.83656,-1.4 1.39427,-1.4c0.55771,0 0.83657,0 1.39427,0c0.55771,0 0.83657,-0.9 1.39428,-1.3c0.55771,-0.4 0.83656,-0.28 1.39427,-0.7c0.55771,-0.42 0.83657,-0.98 1.39428,-1.4c0.55771,-0.42 0.83656,-0.42 1.39427,-0.7c0.55771,-0.28 0.83657,-0.16 1.39428,-0.7c0.55771,-0.54 0.83656,-1.32 1.39427,-2c0.55771,-0.68 0.83657,-0.58 1.39428,-1.4c0.55771,-0.82 0.83656,-1.88 1.39427,-2.7c0.55771,-0.82 0.83657,-1.4 1.39428,-1.4c0.55771,0 0.83656,0 1.39427,0c0.55771,0 0.83657,-0.3 1.39428,-0.7c0.5577,-0.4 0.83656,-0.76 1.39427,-1.3c0.55771,-0.54 0.83656,-0.72 1.39427,-1.4c0.55771,-0.68 0.83657,-2 1.39428,-2c0.55771,0 0.83656,0 1.39427,0c0.55771,0 0.83657,0.7 1.39428,0.7c0.55771,0 0.83656,-1.28 1.39427,-2.1c0.55771,-0.82 0.83657,-0.9 1.39428,-2c0.55771,-1.1 0.83656,-2.9 1.39427,-3.5c0.55771,-0.6 0.83657,-0.34 1.39428,-0.6c0.55771,-0.26 0.83656,-0.7 1.39427,-0.7c0.55771,0 0.83657,0 1.39428,0c0.5577,0 0.83656,0 1.39427,0c0.55771,0 0.83656,-1.84 1.39427,-2.8c0.55771,-0.96 0.83657,-1.2 1.39428,-2c0.55771,-0.8 0.83656,-1.32 1.39427,-2c0.55771,-0.68 0.83657,-0.58 1.39428,-1.4c0.55771,-0.82 0.83656,-2.02 1.39427,-2.7c0.55771,-0.68 0.83657,-0.28 1.39428,-0.7c0.55771,-0.42 0.83656,-0.72 1.39427,-1.4c0.55771,-0.68 0.83657,-1.46 1.39428,-2c0.55771,-0.54 0.83656,-0.28 1.39427,-0.7c0.55771,-0.42 0.83657,-1.4 1.39428,-1.4c0.55771,0 0.83656,1.4 1.39427,1.4c0.55771,0 0.83656,0 1.39427,0c0.55771,0 0.83657,2 1.39428,2c0.55771,0 0.83656,-0.02 1.39427,-0.7c0.55771,-0.68 0.83657,-2.02 1.39428,-2.7c0.55771,-0.68 0.83656,-0.7 1.39427,-0.7c0.55771,0 0.83657,0.7 1.39428,0.7c0.55771,0 0.83656,-0.7 1.39427,-0.7c0.55771,0 0.83657,0.42 1.39428,0.7c0.55771,0.28 0.83656,0.42 1.39427,0.7c0.55771,0.28 0.83657,0.7 1.39428,0.7c0.55771,0 0.83656,-0.7 1.39427,-0.7c0.55771,0 0.83656,0.7 1.39427,0.7c0.55771,0 0.83657,0 1.39428,0c0.55771,0 0.83656,0 1.39427,0c0.55771,0 0.83657,0 1.39428,0c0.55771,0 0.83656,0 1.39427,0c0.55771,0 0.83657,0.76 1.39428,1.3c0.55771,0.54 0.83656,1.4 1.39427,1.4c0.55771,0 0.83657,-0.7 1.39428,-0.7c0.55771,0 0.83656,0.98 1.39427,1.4c0.55771,0.42 0.83657,0.16 1.39428,0.7c0.55771,0.54 0.83656,1.18 1.39427,2c0.55771,0.82 0.83656,1.28 1.39427,2.1c0.55771,0.82 0.83657,1.32 1.39428,2c0.55771,0.68 0.83656,0.98 1.39427,1.4c0.55771,0.42 0.83657,0.44 1.39428,0.7c0.55771,0.26 0.83656,0.34 1.39427,0.6c0.55771,0.26 0.83657,0.42 1.39428,0.7c0.55771,0.28 0.83656,0.28 1.39427,0.7c0.55771,0.42 0.83657,0.86 1.39428,1.4c0.55771,0.54 0.83656,0.62 1.39427,1.3c0.55771,0.68 0.83657,1.54 1.39428,2.1c0.55771,0.56 0.83656,0.16 1.39427,0.7c0.55771,0.54 0.83656,1.46 1.39427,2c0.55771,0.54 0.83657,0.28 1.39428,0.7c0.55771,0.42 0.83656,0.72 1.39427,1.4c0.55771,0.68 0.83657,1.46 1.39428,2c0.55771,0.54 0.83656,0.28 1.39427,0.7c0.55771,0.42 0.83657,1 1.39428,1.4c0.55771,0.4 0.83656,0.34 1.39427,0.6c0.55771,0.26 0.83657,0.42 1.39428,0.7c0.55771,0.28 0.83656,0.42 1.39427,0.7c0.55771,0.28 0.83657,0.42 1.39428,0.7c0.55771,0.28 0.83656,0.42 1.39427,0.7c0.55771,0.28 0.83656,0.3 1.39427,0.7c0.55771,0.4 0.83657,0.9 1.39428,1.3c0.55771,0.4 0.83656,0.28 1.39427,0.7c0.55771,0.42 0.83657,0.98 1.39428,1.4c0.55771,0.42 0.83656,0.3 1.39427,0.7c0.55771,0.4 0.83657,1.3 1.39428,1.3c0.55771,0 0.83656,0 1.39427,0c0.55771,0 0.83657,0 1.39428,0c0.55771,0 0.83656,0 1.39427,0c0.55771,0 0.83657,-0.44 1.39428,-0.7c0.55771,-0.26 0.83656,-0.34 1.39427,-0.6c0.55771,-0.26 0.83657,-0.28 1.39427,-0.7c0.55771,-0.42 0.83657,-0.84 1.39428,-1.4c0.55771,-0.56 0.83656,-0.86 1.39427,-1.4c0.55771,-0.54 0.83657,-0.76 1.39428,-1.3c0.55771,-0.54 0.83656,-0.72 1.39427,-1.4c0.55771,-0.68 0.83657,-0.78 1.39428,-2c0.55771,-1.22 0.83656,-2.72 1.39427,-4.1c0.55771,-1.38 0.83657,-1.84 1.39428,-2.8c0.55771,-0.96 0.83656,-1.18 1.39427,-2c0.55771,-0.82 0.83657,-1.42 1.39428,-2.1c0.55771,-0.68 0.83656,-0.48 1.39427,-1.3c0.55771,-0.82 0.83657,-1.44 1.39427,-2.8c0.55771,-1.36 0.83657,-4 1.39428,-4c0.55771,0 0.83656,0 1.39427,0c0.55771,0 0.83657,-0.16 1.39428,-1.4c0.55771,-1.24 0.83656,-3.44 1.39427,-4.8c0.55771,-1.36 0.83657,-0.78 1.39428,-2c0.55771,-1.22 0.83656,-2.6 1.39427,-4.1c0.55771,-1.5 0.83657,-3.4 1.39428,-3.4c0.55771,0 0.83656,0.6 1.39427,0.6c0.55771,0 0.83657,-1.08 1.39428,-2.7c0.55771,-1.62 0.83656,-3.9 1.39427,-5.4c0.55771,-1.5 0.83657,-1.14 1.39428,-2.1c0.5577,-0.96 0.83656,-1.2 1.39427,-2.7c0.55771,-1.5 0.83656,-3.3 1.39427,-4.8c0.55771,-1.5 0.83657,-1.88 1.39428,-2.7c0.55771,-0.82 0.83656,-0.58 1.39427,-1.4c0.55771,-0.82 0.83657,-1.34 1.39428,-2.7c0.55771,-1.36 0.83656,-4.1 1.39427,-4.1c0.55771,0 0.83657,0 1.39428,0c0.55771,0 0.83656,1.48 1.39427,2.7c0.55771,1.22 0.83657,3.4 1.39428,3.4c0.55771,0 0.83656,0 1.39427,-1.3c0.55771,-1.3 0.83657,-6.72 1.39428,-9.6c0.55771,-2.88 0.83656,-4.8 1.39427,-4.8c0.55771,0 0.83656,0.72 1.39427,1.4c0.55771,0.68 0.83657,1.04 1.39428,2c0.55771,0.96 0.83656,2.8 1.39427,2.8c0.55771,0 0.83657,-1.64 1.39428,-4.1c0.55771,-2.46 0.83656,-8.2 1.39427,-8.2c0.55771,0 0.83657,6.8 1.39428,6.8c0.55771,0 0.83656,-1.76 1.39427,-3.4c0.55771,-1.64 0.83657,-3.3 1.39428,-4.8c0.55771,-1.5 0.83656,-2.02 1.39427,-2.7c0.55771,-0.68 0.83657,-0.7 1.39428,-0.7c0.55771,0 0.83656,0.5 1.39427,2c0.55771,1.5 0.83656,3.86 1.39427,5.5c0.55771,1.64 0.83657,1.74 1.39428,2.7c0.55771,0.96 0.83656,1.28 1.39427,2.1c0.55771,0.82 0.83657,1.04 1.39428,2c0.55771,0.96 0.83656,2.2 1.39427,2.8c0.55771,0.6 0.83657,0.34 1.39428,0.6c0.55771,0.26 0.83656,0.7 1.39427,0.7c0.55771,0 0.83657,0 1.39428,0c0.55771,0 0.83656,0.98 1.39427,1.4c0.55771,0.42 0.83657,0.3 1.39428,0.7c0.55771,0.4 0.83656,0.48 1.39427,1.3c0.55771,0.82 0.83656,1.98 1.39427,2.8c0.55771,0.82 0.83657,0.36 1.39428,1.3c0.55771,0.94 0.83656,2.44 1.39427,3.4c0.55771,0.96 0.83657,0.7 1.39428,1.4c0.55771,0.7 0.83656,1.28 1.39427,2.1c0.55771,0.82 0.83657,1.32 1.39428,2c0.55771,0.68 0.83656,0.72 1.39427,1.4c0.55771,0.68 0.83657,1.32 1.39428,2c0.55771,0.68 0.83656,0.84 1.39427,1.4c0.55771,0.56 0.83657,1 1.39428,1.4c0.55771,0.4 0.83656,0.34 1.39427,0.6c0.55771,0.26 0.83656,0.14 1.39427,0.7c0.55771,0.56 0.83657,1.56 1.39428,2.1c0.55771,0.54 0.83656,0.6 1.39427,0.6c0.55771,0 0.83657,0 1.39428,0c0.55771,0 0.83656,0.28 1.39427,0.7c0.55771,0.42 0.83657,0.84 1.39428,1.4c0.55771,0.56 0.83656,0.86 1.39427,1.4c0.55771,0.54 0.83657,0.76 1.39428,1.3c0.55771,0.54 0.83656,0.98 1.39427,1.4c0.55771,0.42 0.83657,0.42 1.39428,0.7c0.55771,0.28 0.83656,0.44 1.39427,0.7c0.55771,0.26 0.83656,0.34 1.39427,0.6c0.55771,0.26 0.83657,0.42 1.39428,0.7c0.55771,0.28 0.83656,0.28 1.39427,0.7c0.55771,0.42 0.83657,1 1.39428,1.4c0.55771,0.4 0.83656,0.34 1.39427,0.6c0.55771,0.26 0.83657,0.42 1.39428,0.7c0.55771,0.28 0.83656,0.7 1.39427,0.7c0.55771,0 0.83657,0 1.39428,0c0.55771,0 0.83656,0.42 1.39427,0.7c0.55771,0.28 0.83657,0.42 1.39428,0.7c0.55771,0.28 0.83656,0.7 1.39427,0.7c0.55771,0 0.83657,0 1.39427,0c0.55771,0 0.83657,0 1.39428,0c0.55771,0 0.83656,-0.7 1.39427,-0.7c0.55771,0 0.83657,0 1.39428,0c0.55771,0 0.83656,-0.98 1.39427,-1.4c0.55771,-0.42 0.83657,-0.16 1.39428,-0.7c0.55771,-0.54 0.83656,-1.46 1.39427,-2c0.55771,-0.54 0.83657,-0.02 1.39428,-0.7c0.55771,-0.68 0.83656,-1.6 1.39427,-2.7c0.55771,-1.1 0.83657,-1.42 1.39428,-2.8c0.55771,-1.38 0.83656,-2.88 1.39427,-4.1c0.55771,-1.22 0.83657,-1.2 1.39427,-2c0.55771,-0.8 0.83657,-1.32 1.39428,-2c0.55771,-0.68 0.83656,-0.58 1.39427,-1.4c0.55771,-0.82 0.83657,-1.74 1.39428,-2.7c0.55771,-0.96 0.83656,-1.4 1.39427,-2.1c0.55771,-0.7 0.83657,-0.58 1.39428,-1.4c0.55771,-0.82 0.83656,-1.76 1.39427,-2.7c0.55771,-0.94 0.83657,-0.92 1.39428,-2c0.55771,-1.08 0.83656,-2.3 1.39427,-3.4c0.55771,-1.1 0.83657,-1.14 1.39428,-2.1c0.55771,-0.96 0.83656,-2.02 1.39427,-2.7c0.55771,-0.68 0.83657,0 1.39428,-0.7c0.5577,-0.7 0.83656,-2.44 1.39427,-3.4c0.55771,-0.96 0.83656,-0.72 1.39427,-1.4c0.55771,-0.68 0.83657,-0.92 1.39428,-2c0.55771,-1.08 0.83656,-2.7 1.39427,-3.4c0.55771,-0.7 0.83657,0 1.39428,-0.7c0.55771,-0.7 0.83656,-3 1.39427,-4.1c0.55771,-1.1 0.83657,-0.44 1.39428,-1.4c0.55771,-0.96 0.83656,-2.04 1.39427,-3.4c0.55771,-1.36 0.83657,-2.3 1.39428,-3.4c0.55771,-1.1 0.83656,-2.1 1.39427,-2.1c0.55771,0 0.83657,0 1.39428,0c0.55771,0 0.83656,-0.76 1.39427,-1.3c0.55771,-0.54 0.83656,-0.58 1.39427,-1.4c0.55771,-0.82 0.83657,-1.48 1.39428,-2.7c0.55771,-1.22 0.83656,-2.44 1.39427,-3.4c0.55771,-0.96 0.83657,-0.84 1.39428,-1.4c0.55771,-0.56 0.83656,-0.86 1.39427,-1.4c0.55771,-0.54 0.83657,-0.76 1.39428,-1.3c0.55771,-0.54 0.83656,-0.84 1.39427,-1.4c0.55771,-0.56 0.83657,-0.86 1.39428,-1.4c0.55771,-0.54 0.83656,-0.9 1.39427,-1.3c0.55771,-0.4 0.83657,-0.7 1.39428,-0.7c0.55771,0 0.83656,0 1.39427,0c0.55771,0 0.83656,0 1.39427,0c0.55771,0 0.83657,0 1.39428,0c0.55771,0 0.83656,0.02 1.39427,0.7c0.55771,0.68 0.83657,2.02 1.39428,2.7c0.55771,0.68 0.83656,0 1.39427,0.7c0.55771,0.7 0.83657,3.16 1.39428,4.8c0.55771,1.64 0.83656,2.46 1.39427,3.4c0.55771,0.94 0.83657,0.76 1.39428,1.3c0.55771,0.54 0.83656,0.84 1.39427,1.4c0.55771,0.56 0.83657,0.86 1.39428,1.4c0.55771,0.54 0.83656,0.48 1.39427,1.3c0.55771,0.82 0.83656,1.84 1.39427,2.8c0.55771,0.96 0.83657,1.18 1.39428,2c0.55771,0.82 0.83656,1.28 1.39427,2.1c0.55771,0.82 0.83657,1.06 1.39428,2c0.55771,0.94 0.83656,1.46 1.39427,2.7c0.55771,1.24 0.83657,2.4 1.39428,3.5c0.55771,1.1 0.83656,1.2 1.39427,2c0.55771,0.8 0.83657,1.32 1.39428,2c0.55771,0.68 0.83656,0.84 1.39427,1.4c0.55771,0.56 0.83657,0.98 1.39428,1.4c0.55771,0.42 0.83656,0.44 1.39427,0.7c0.55771,0.26 0.83656,0.2 1.39427,0.6c0.55771,0.4 0.83657,0.98 1.39428,1.4c0.55771,0.42 0.83656,0.42 1.39427,0.7c0.55771,0.28 0.83657,0.16 1.39428,0.7c0.55771,0.54 0.83656,1.46 1.39427,2c0.55771,0.54 0.83657,0.28 1.39428,0.7c0.55771,0.42 0.83656,0.86 1.39427,1.4c0.55771,0.54 0.83657,0.62 1.39428,1.3c0.55771,0.68 0.83656,1.54 1.39427,2.1c0.55771,0.56 0.83657,0.3 1.39428,0.7c0.55771,0.4 0.83656,0.62 1.39427,1.3c0.55771,0.68 0.83656,1.42 1.39427,2.1c0.55771,0.68 0.83657,0.76 1.39428,1.3c0.55771,0.54 0.83656,0.98 1.39427,1.4c0.55771,0.42 0.83657,0.28 1.39428,0.7c0.55771,0.42 0.83656,0.86 1.39427,1.4c0.55771,0.54 0.83657,0.76 1.39428,1.3c0.55771,0.54 0.83656,0.84 1.39427,1.4c0.55771,0.56 0.83657,0.86 1.39428,1.4c0.55771,0.54 0.83656,0.62 1.39427,1.3c0.55771,0.68 0.83657,1.42 1.39428,2.1c0.55771,0.68 0.83656,0.9 1.39427,1.3c0.55771,0.4 0.83657,0.42 1.39427,0.7c0.55771,0.28 0.83657,0.42 1.39428,0.7c0.55771,0.28 0.83656,0.7 1.39427,0.7c0.55771,0 0.83657,-0.42 1.39428,-0.7c0.55771,-0.28 0.83656,-0.42 1.39427,-0.7c0.55771,-0.28 0.83657,-0.7 1.39428,-0.7c0.55771,0 0.83656,0.7 1.39427,0.7c0.55771,0 0.83657,0 1.39428,0c0.55771,0 0.83656,0 1.39427,0c0.55771,0 0.83657,-0.42 1.39428,-0.7c0.55771,-0.28 0.83656,-0.44 1.39427,-0.7c0.55771,-0.26 0.83657,-0.06 1.39427,-0.6c0.55771,-0.54 0.83657,-1.42 1.39428,-2.1c0.55771,-0.68 0.83656,-0.48 1.39427,-1.3c0.55771,-0.82 0.83657,-2.1 1.39428,-2.8c0.55771,-0.7 0.83656,-0.3 1.39427,-0.7c0.55771,-0.4 0.83657,-0.9 1.39428,-1.3c0.55771,-0.4 0.83656,-0.14 1.39427,-0.7c0.55771,-0.56 0.83657,-1.14 1.39428,-2.1c0.55771,-0.96 0.83656,-2.7 1.39427,-2.7c0.55771,0 0.83657,0 1.39428,0c0.55771,0 0.83656,-0.16 1.39427,-0.7c0.55771,-0.54 0.83657,-1.46 1.39428,-2c0.5577,-0.54 0.83656,0 1.39427,-0.7c0.55771,-0.7 0.83656,-2.3 1.39427,-3.4c0.55771,-1.1 0.83657,-1.42 1.39428,-2.1c0.55771,-0.68 0.83656,-0.62 1.39427,-1.3c0.55771,-0.68 0.83657,-1.28 1.39428,-2.1c0.55771,-0.82 0.83656,-1.46 1.39427,-2c0.55771,-0.54 0.83657,-0.28 1.39428,-0.7c0.55771,-0.42 0.83656,-0.44 1.39427,-1.4c0.55771,-0.96 0.83657,-2.46 1.39428,-3.4c0.55771,-0.94 0.83656,-0.62 1.39427,-1.3c0.55771,-0.68 0.83657,-1.54 1.39428,-2.1c0.5577,-0.56 0.83656,-0.42 1.39427,-0.7c0.55771,-0.28 0.83656,-0.7 1.39427,-0.7c0.55771,0 0.83657,0 1.39428,0c0.55771,0 0.83656,-0.2 1.39427,-0.6c0.55771,-0.4 0.83657,-1.4 1.39428,-1.4c0.55771,0 0.83656,0.86 1.39427,1.4c0.55771,0.54 0.83657,1.3 1.39428,1.3c0.55771,0 0.83656,-2.7 1.39427,-3.4c0.55771,-0.7 0.83657,-0.7 1.39428,-0.7c0.55771,0 0.83656,0.44 1.39427,1.4c0.55771,0.96 0.83657,2.44 1.39428,3.4c0.55771,0.96 0.83656,0.72 1.39427,1.4c0.55771,0.68 0.83656,2 1.39427,2c0.55771,0 0.83657,-2.44 1.39428,-3.4c0.55771,-0.96 0.83656,-1 1.39427,-1.4c0.55771,-0.4 0.83657,-0.6 1.39428,-0.6c0.55771,0 0.83656,0.62 1.39427,1.3c0.55771,0.68 0.83657,1.54 1.39428,2.1c0.55771,0.56 0.83656,0.3 1.39427,0.7c0.55771,0.4 0.83657,0.62 1.39428,1.3c0.55771,0.68 0.83656,1.14 1.39427,2.1c0.55771,0.96 0.83657,1.62 1.39428,2.7c0.55771,1.08 0.83656,1.6 1.39427,2.7c0.55771,1.1 0.83656,1.84 1.39427,2.8c0.55771,0.96 0.83657,1.18 1.39428,2c0.55771,0.82 0.83656,1.56 1.39427,2.1c0.55771,0.54 0.83657,0 1.39428,0.6c0.55771,0.6 0.83656,1.7 1.39427,2.8c0.55771,1.1 0.83657,1.76 1.39428,2.7c0.55771,0.94 0.83656,0.9 1.39427,2c0.55771,1.1 0.83657,2.26 1.39428,3.5c0.55771,1.24 0.83656,1.88 1.39427,2.7c0.55771,0.82 0.83657,0.72 1.39428,1.4c0.55771,0.68 0.83656,1.2 1.39427,2c0.55771,0.8 0.83656,1.04 1.39427,2c0.55771,0.96 0.83657,1.98 1.39428,2.8c0.55771,0.82 0.83656,0.62 1.39427,1.3c0.55771,0.68 0.83657,1.28 1.39428,2.1c0.55771,0.82 0.83656,1.32 1.39427,2c0.55771,0.68 0.83657,0.58 1.39428,1.4c0.55771,0.82 0.83656,1.74 1.39427,2.7c0.55771,0.96 0.83657,1.42 1.39428,2.1c0.55771,0.68 0.83656,0.76 1.39427,1.3c0.55771,0.54 0.83657,0.84 1.39428,1.4c0.55771,0.56 0.83656,0.86 1.39427,1.4c0.55771,0.54 0.83656,0.76 1.39427,1.3c0.55771,0.54 0.83657,0.84 1.39428,1.4c0.55771,0.56 0.83656,0.58 1.39427,1.4c0.55771,0.82 0.83657,1.88 1.39428,2.7c0.55771,0.82 0.83656,0.86 1.39427,1.4c0.55771,0.54 0.83657,0.9 1.39428,1.3c0.55771,0.4 0.83656,0.28 1.39427,0.7c0.55771,0.42 0.83657,0.86 1.39428,1.4c0.55771,0.54 0.83656,0.9 1.39427,1.3c0.55771,0.4 0.83657,0.28 1.39428,0.7c0.55771,0.42 0.83656,0.98 1.39427,1.4c0.55771,0.42 0.83656,0.3 1.39427,0.7c0.55771,0.4 0.83657,0.76 1.39428,1.3c0.55771,0.54 0.83656,0.84 1.39427,1.4c0.55771,0.56 0.83657,1 1.39428,1.4c0.55771,0.4 0.83656,0.6 1.39427,0.6c0.55771,0 0.83657,0 1.39428,0c0.55771,0 0.83656,0 1.39427,0c0.55771,0 0.83657,-1.3 1.39428,-1.3c0.55771,0 0.83656,2 1.39427,2c0.55771,0 0.83657,0 1.39428,0c0.55771,0 0.83656,-0.3 1.39427,-0.7c0.55771,-0.4 0.83657,-0.62 1.39427,-1.3c0.55771,-0.68 0.83657,-1.42 1.39428,-2.1c0.55771,-0.68 0.83656,-0.62 1.39427,-1.3c0.55771,-0.68 0.83657,-1.28 1.39428,-2.1c0.55771,-0.82 0.83656,-2 1.39427,-2c0.55771,0 0.83657,0 1.39428,0c0.55771,0 0.83656,-2.1 1.39427,-2.1c0.55771,0 0.83657,0 1.39428,0c0.55771,0 0.83656,-1.74 1.39427,-2.7c0.55771,-0.96 0.83657,-1.56 1.39428,-2.1c0.55771,-0.54 0.83656,-0.06 1.39427,-0.6c0.55771,-0.54 0.83657,-1.28 1.39428,-2.1c0.5577,-0.82 0.83656,-0.92 1.39427,-2c0.55771,-1.08 0.83656,-2.02 1.39427,-3.4c0.55771,-1.38 0.83657,-2.54 1.39428,-3.5c0.55771,-0.96 0.83656,-0.36 1.39427,-1.3c0.55771,-0.94 0.83657,-2.04 1.39428,-3.4c0.55771,-1.36 0.83656,-2.16 1.39427,-3.4c0.55771,-1.24 0.83657,-1.84 1.39428,-2.8c0.55771,-0.96 0.83656,-1.18 1.39427,-2c0.55771,-0.82 0.83657,-1.14 1.39428,-2.1c0.55771,-0.96 0.83656,-1.34 1.39427,-2.7c0.55771,-1.36 0.83657,-3.4 1.39428,-4.1c0.5577,-0.7 0.83656,0 1.39427,-0.7c0.55771,-0.7 0.83656,-4.2 1.39427,-4.8c0.55771,-0.6 0.83657,0 1.39428,-0.6c0.55771,-0.6 0.83656,-2.3 1.39427,-3.4c0.55771,-1.1 0.83657,-1.14 1.39428,-2.1c0.55771,-0.96 0.83656,-1.88 1.39427,-2.7c0.55771,-0.82 0.83657,-0.84 1.39428,-1.4c0.55771,-0.56 0.83656,-0.72 1.39427,-1.4c0.55771,-0.68 0.83657,-0.92 1.39428,-2c0.55771,-1.08 0.83656,-2.44 1.39427,-3.4c0.55771,-0.96 0.83657,-0.72 1.39428,-1.4c0.55771,-0.68 0.83656,-1.32 1.39427,-2c0.55771,-0.68 0.83656,-0.72 1.39427,-1.4c0.55771,-0.68 0.83657,-1.18 1.39428,-2c0.55771,-0.82 0.83656,-2.1 1.39427,-2.1c0.55771,0 0.83657,0 1.39428,0c0.55771,0 0.83656,-0.7 1.39427,-0.7c0.55771,0 0.83657,0 1.39428,0c0.55771,0 0.83656,0 1.39427,0c0.55771,0 0.83657,0 1.39428,0c0.55771,0 0.83656,0.84 1.39427,1.4c0.55771,0.56 0.83657,0.72 1.39428,1.4c0.55771,0.68 0.83656,1.18 1.39427,2c0.55771,0.82 0.83656,2.1 1.39427,2.1c0.55771,0 0.83657,0 1.39428,0c0.55771,0 0.83656,2.7 1.39427,2.7c0.55771,0 0.83657,0 1.39428,0c0.55771,0 0.83656,1.46 1.39427,2c0.55771,0.54 0.83657,0.14 1.39428,0.7c0.55771,0.56 0.83656,1.28 1.39427,2.1c0.55771,0.82 0.83657,1.18 1.39428,2c0.55771,0.82 0.83656,1.28 1.39427,2.1c0.55771,0.82 0.83657,1.06 1.39428,2c0.55771,0.94 0.83656,1.74 1.39427,2.7c0.55771,0.96 0.83656,1.42 1.39427,2.1c0.55771,0.68 0.83657,0.76 1.39428,1.3c0.55771,0.54 0.83656,0.7 1.39427,1.4c0.55771,0.7 0.83657,1.42 1.39428,2.1c0.55771,0.68 0.83656,0.62 1.39427,1.3c0.55771,0.68 0.83657,1.42 1.39428,2.1c0.55771,0.68 0.83656,0.76 1.39427,1.3c0.55771,0.54 0.83657,0.98 1.39428,1.4c0.55771,0.42 0.83656,0.16 1.39427,0.7c0.55771,0.54 0.83657,1.32 1.39428,2c0.55771,0.68 0.83656,1.4 1.39427,1.4c0.55771,0 0.83656,0 1.39427,0c0.55771,0 0.83657,0 1.39428,0c0.55771,0 0.83656,0.42 1.39427,0.7c0.55771,0.28 0.83657,0.44 1.39428,0.7c0.55771,0.26 0.83656,0.34 1.39427,0.6c0.55771,0.26 0.83657,0.7 1.39428,0.7c0.55771,0 0.83656,0 1.39427,0c0.55771,0 0.83657,0.84 1.39428,1.4c0.55771,0.56 0.83656,1 1.39427,1.4c0.55771,0.4 0.83657,0.2 1.39428,0.6c0.55771,0.4 0.83656,1.4 1.39427,1.4c0.55771,0 0.83656,0 1.39427,0c0.55771,0 0.83657,0.28 1.39428,0.7c0.55771,0.42 0.83656,1 1.39427,1.4c0.55771,0.4 0.83657,0.34 1.39428,0.6c0.55771,0.26 0.83656,0.42 1.39427,0.7c0.55771,0.28 0.83657,0.7 1.39428,0.7c0.55771,0 0.83656,0 1.39427,0c0.55771,0 0.83657,0 1.39428,0c0.55771,0 0.83656,1.4 1.39427,1.4c0.55771,0 0.83657,0 1.39428,0c0.55771,0 0.83656,-0.42 1.39427,-0.7c0.55771,-0.28 0.83657,-0.28 1.39427,-0.7c0.55771,-0.42 0.83657,-0.86 1.39428,-1.4c0.55771,-0.54 0.83656,-0.76 1.39427,-1.3c0.55771,-0.54 0.83657,-0.58 1.39428,-1.4c0.55771,-0.82 0.83656,-1.48 1.39427,-2.7c0.55771,-1.22 0.83657,-1.9 1.39428,-3.4c0.55771,-1.5 0.83656,-2.6 1.39427,-4.1c0.55771,-1.5 0.83657,-3.4 1.39428,-3.4c0.55771,0 0.83656,0.6 1.39427,0.6c0.55771,0 0.83657,-0.78 1.39428,-2c0.55771,-1.22 0.83656,-2.74 1.39427,-4.1c0.55771,-1.36 0.83657,-1.34 1.39428,-2.7c0.5577,-1.36 0.83656,-2.46 1.39427,-4.1c0.55771,-1.64 0.83656,-2.6 1.39427,-4.1c0.55771,-1.5 0.83657,-1.9 1.39428,-3.4c0.55771,-1.5 0.83656,-2.32 1.39427,-4.1c0.55771,-1.78 0.83657,-3.16 1.39428,-4.8c0.55771,-1.64 0.83656,-1.48 1.39427,-3.4c0.55771,-1.92 0.83657,-3.6 1.39428,-6.2c0.55771,-2.6 0.83656,-4.9 1.39427,-6.8c0.55771,-1.9 0.83657,-1.48 1.39428,-2.7c0.55771,-1.22 0.83656,-2.44 1.39427,-3.4c0.55771,-0.96 0.83657,-0.3 1.39428,-1.4c0.5577,-1.1 0.83656,-2.88 1.39427,-4.1c0.55771,-1.22 0.83656,-2 1.39427,-2c0.55771,0 0.83657,0.6 1.39428,0.6c0.55771,0 0.83656,-2.04 1.39427,-3.4c0.55771,-1.36 0.83657,-2.7 1.39428,-3.4c0.55771,-0.7 0.83656,-0.16 1.39427,-0.7c0.55771,-0.54 0.83657,-1.18 1.39428,-2c0.55771,-0.82 0.83656,-1.28 1.39427,-2.1c0.55771,-0.82 0.83657,-1.18 1.39428,-2c0.55771,-0.82 0.83656,-1.42 1.39427,-2.1c0.55771,-0.68 0.83657,-0.76 1.39428,-1.3c0.55771,-0.54 0.83656,-1.4 1.39427,-1.4c0.55771,0 0.83656,0.7 1.39427,0.7c0.55771,0 0.83657,-0.7 1.39428,-0.7c0.55771,0 0.83656,0.7 1.39427,0.7c0.55771,0 0.83657,-0.7 1.39428,-0.7c0.55771,0 0.83656,0 1.39427,0.7c0.55771,0.7 0.83657,1.92 1.39428,4.1c0.55771,2.18 0.83656,4.34 1.39427,6.8c0.55771,2.46 0.83657,3.44 1.39428,5.5c0.55771,2.06 0.83656,3.02 1.39427,4.8c0.55771,1.78 0.83657,2.74 1.39428,4.1c0.55771,1.36 0.83656,2.02 1.39427,2.7c0.55771,0.68 0.83656,0 1.39427,0.7c0.55771,0.7 0.83657,6.66 1.39428,10.2c0.55771,3.54 0.83656,4.5 1.39427,7.5c0.55771,3 0.83657,6.1 1.39428,7.5c0.55771,1.4 0.83656,0.58 1.39427,1.4c0.55771,0.82 0.83657,1.74 1.39428,2.7c0.55771,0.96 0.83656,0.46 1.39427,2.1c0.55771,1.64 0.83657,3.92 1.39428,6.1c0.55771,2.18 0.83656,3.02 1.39427,4.8c0.55771,1.78 0.83657,3.02 1.39428,4.1c0.55771,1.08 0.83656,0.62 1.39427,1.3c0.55771,0.68 0.83656,1 1.39427,2.1c0.55771,1.1 0.83657,2.44 1.39428,3.4c0.55771,0.96 0.83656,0.72 1.39427,1.4c0.55771,0.68 0.83657,1.06 1.39428,2c0.55771,0.94 0.83656,1.88 1.39427,2.7c0.55771,0.82 0.83657,0.84 1.39428,1.4c0.55771,0.56 0.83656,0.72 1.39427,1.4c0.55771,0.68 0.83657,1.46 1.39428,2c0.55771,0.54 0.83656,0.28 1.39427,0.7c0.55771,0.42 0.83657,0.86 1.39428,1.4c0.55771,0.54 0.83656,0.9 1.39427,1.3c0.55771,0.4 0.83656,0.28 1.39427,0.7c0.55771,0.42 0.83657,0.98 1.39428,1.4c0.55771,0.42 0.83656,0.7 1.39427,0.7c0.55771,0 0.83657,0 1.39428,0c0.55771,0 0.83656,0.9 1.39427,1.3c0.55771,0.4 0.83657,0.42 1.39428,0.7c0.55771,0.28 0.83656,0.28 1.39427,0.7c0.55771,0.42 0.83657,0.86 1.39428,1.4c0.55771,0.54 0.83656,0.9 1.39427,1.3c0.55771,0.4 0.83657,0.28 1.39428,0.7c0.55771,0.42 0.83656,1.4 1.39427,1.4c0.55771,0 0.83656,0 1.39427,0c0.55771,0 0.83657,0.34 1.39428,0.6c0.55771,0.26 0.83656,0.7 1.39427,0.7c0.55771,0 0.83657,0 1.39428,0c0.55771,0 0.83656,0.7 1.39427,0.7c0.55771,0 0.83657,0 1.39428,0c0.55771,0 0.83656,0.7 1.39427,0.7c0.55771,0 0.83657,0 1.39428,0c0.55771,0 0.83656,0.7 1.39427,0.7c0.55771,0 1.39428,0 1.39428,0l0,120.1l-950.89525,0" fill="#757de8"/>
  <path stroke-width="1" stroke="#757de8" d="m-0.6559,114.1c0,0 0.83656,0.48 1.39427,1.3c0.55771,0.82 0.83657,2.1 1.39428,2.8c0.55771,0.7 0.83656,0.16 1.39427,0.7c0.55771,0.54 0.83657,1.32 1.39428,2c0.55771,0.68 0.83656,0.86 1.39427,1.4c0.55771,0.54 0.83657,0.76 1.39428,1.3c0.55771,0.54 0.83656,0.58 1.39427,1.4c0.55771,0.82 0.83657,1.88 1.39428,2.7c0.55771,0.82 0.83656,0.98 1.39427,1.4c0.55771,0.42 0.83656,0.16 1.39427,0.7c0.55771,0.54 0.83657,1.32 1.39428,2c0.55771,0.68 0.83656,1.4 1.39427,1.4c0.55771,0 0.83657,0 1.39428,0c0.55771,0 0.83656,1.18 1.39427,2c0.55771,0.82 0.83657,1.54 1.39428,2.1c0.55771,0.56 0.83656,0.3 1.39427,0.7c0.55771,0.4 0.83657,0.48 1.39428,1.3c0.55771,0.82 0.83656,1.98 1.39427,2.8c0.55771,0.82 0.83657,1.3 1.39428,1.3c0.55771,0 0.83656,0 1.39427,0c0.55771,0 0.83656,0.28 1.39427,0.7c0.55771,0.42 0.83657,1.4 1.39428,1.4c0.55771,0 0.83656,0 1.39427,0c0.55771,0 0.83657,0.62 1.39428,1.3c0.55771,0.68 0.83656,1.42 1.39427,2.1c0.55771,0.68 0.83657,0.62 1.39428,1.3c0.55771,0.68 0.83656,1.4 1.39427,2.1c0.55771,0.7 0.83657,1.4 1.39428,1.4c0.55771,0 0.83656,0 1.39427,0c0.55771,0 0.83657,0.6 1.39428,0.6c0.55771,0 0.83656,0 1.39427,0c0.55771,0 0.83656,1.4 1.39427,1.4c0.55771,0 0.83657,0 1.39428,0c0.55771,0 0.83656,0.7 1.39427,0.7c0.55771,0 0.83657,0 1.39428,0c0.55771,0 0.83656,0 1.39427,0c0.55771,0 0.83657,0 1.39428,0c0.55771,0 0.83656,-0.7 1.39427,-0.7c0.55771,0 0.83657,0 1.39428,0c0.55771,0 0.83656,0 1.39427,0c0.55771,0 0.83657,-0.42 1.39428,-0.7c0.55771,-0.28 0.83656,-0.44 1.39427,-0.7c0.55771,-0.26 0.83657,-0.2 1.39427,-0.6c0.55771,-0.4 0.83657,-0.98 1.39428,-1.4c0.55771,-0.42 0.83656,-0.02 1.39427,-0.7c0.55771,-0.68 0.83657,-2.7 1.39428,-2.7c0.55771,0 0.83656,0 1.39427,0c0.55771,0 0.83657,-0.14 1.39428,-0.7c0.55771,-0.56 0.83656,-2.1 1.39427,-2.1c0.55771,0 0.83657,0.98 1.39428,1.4c0.55771,0.42 0.83656,0.7 1.39427,0.7c0.55771,0 0.83657,-0.58 1.39428,-1.4c0.55771,-0.82 0.83656,-2.7 1.39427,-2.7c0.55771,0 0.83657,0 1.39428,0.7c0.5577,0.7 0.83656,4.1 1.39427,4.1c0.55771,0 0.83656,-1.42 1.39427,-2.1c0.55771,-0.68 0.83657,-1.3 1.39428,-1.3c0.55771,0 0.83656,1.3 1.39427,1.3c0.55771,0 0.83657,0 1.39428,0c0.55771,0 0.83656,2.1 1.39427,2.1c0.55771,0 0.83657,-2.1 1.39428,-2.1c0.55771,0 0.83656,2.1 1.39427,2.1c0.55771,0 0.83657,-2.1 1.39428,-2.1c0.55771,0 0.83656,0.7 1.39427,0.7c0.55771,0 0.83657,0 1.39428,0c0.5577,0 0.83656,-1.4 1.39427,-1.4c0.55771,0 0.83656,0 1.39427,0c0.55771,0 0.83657,0 1.39428,0c0.55771,0 0.83656,0.42 1.39427,0.7c0.55771,0.28 0.83657,0.42 1.39428,0.7c0.55771,0.28 0.83656,0.7 1.39427,0.7c0.55771,0 0.83657,-0.7 1.39428,-0.7c0.55771,0 0.83656,0.42 1.39427,0.7c0.55771,0.28 0.83657,0.42 1.39428,0.7c0.55771,0.28 0.83656,0.7 1.39427,0.7c0.55771,0 0.83657,-0.7 1.39428,-0.7c0.55771,0 0.83656,0.9 1.39427,1.3c0.55771,0.4 0.83656,0.7 1.39427,0.7c0.55771,0 0.83657,0 1.39428,0c0.55771,0 0.83656,2.1 1.39427,2.1c0.55771,0 0.83657,-0.7 1.39428,-0.7c0.55771,0 0.83656,0 1.39427,0c0.55771,0 0.83657,0 1.39428,0c0.55771,0 0.83656,0 1.39427,0c0.55771,0 0.83657,0.42 1.39428,0.7c0.55771,0.28 0.83656,0.3 1.39427,0.7c0.55771,0.4 0.83657,1.3 1.39428,1.3c0.55771,0 0.83656,0 1.39427,0c0.55771,0 0.83656,0 1.39427,0c0.55771,0 0.83657,0.98 1.39428,1.4c0.55771,0.42 0.83656,0.3 1.39427,0.7c0.55771,0.4 0.83657,1.3 1.39428,1.3c0.55771,0 0.83656,0 1.39427,0c0.55771,0 0.83657,0.42 1.39428,0.7c0.55771,0.28 0.83656,0.16 1.39427,0.7c0.55771,0.54 0.83657,1.32 1.39428,2c0.55771,0.68 0.83656,0.84 1.39427,1.4c0.55771,0.56 0.83657,0.86 1.39428,1.4c0.55771,0.54 0.83656,0.76 1.39427,1.3c0.55771,0.54 0.83656,0.84 1.39427,1.4c0.55771,0.56 0.83657,0.98 1.39428,1.4c0.55771,0.42 0.83656,0.3 1.39427,0.7c0.55771,0.4 0.83657,0.62 1.39428,1.3c0.55771,0.68 0.83656,1.54 1.39427,2.1c0.55771,0.56 0.83657,0.44 1.39428,0.7c0.55771,0.26 0.83656,0.34 1.39427,0.6c0.55771,0.26 0.83657,0.28 1.39428,0.7c0.55771,0.42 0.83656,0.98 1.39427,1.4c0.55771,0.42 0.83657,0.3 1.39428,0.7c0.55771,0.4 0.83656,1.3 1.39427,1.3c0.55771,0 0.83656,0 1.39427,0c0.55771,0 0.83657,0.42 1.39428,0.7c0.55771,0.28 0.83656,0.42 1.39427,0.7c0.55771,0.28 0.83657,0.7 1.39428,0.7c0.55771,0 0.83656,0 1.39427,0c0.55771,0 0.83657,1.3 1.39428,1.3c0.55771,0 0.83656,-0.6 1.39427,-0.6c0.55771,0 0.83657,0 1.39428,0c0.55771,0 0.83656,0.6 1.39427,0.6c0.55771,0 0.83657,0 1.39428,0c0.55771,0 0.83656,-0.6 1.39427,-0.6c0.55771,0 0.83656,0.6 1.39427,0.6c0.55771,0 0.83657,-0.34 1.39428,-0.6c0.55771,-0.26 0.83656,-0.42 1.39427,-0.7c0.55771,-0.28 0.83657,-0.7 1.39428,-0.7c0.55771,0 0.83656,0 1.39427,0c0.55771,0 0.83657,-0.42 1.39428,-0.7c0.55771,-0.28 0.83656,-0.3 1.39427,-0.7c0.55771,-0.4 0.83657,-0.9 1.39428,-1.3c0.55771,-0.4 0.83656,-0.7 1.39427,-0.7c0.55771,0 0.83657,0 1.39428,0c0.55771,0 0.83656,-1.4 1.39427,-1.4c0.55771,0 0.83657,0 1.39427,0c0.55771,0 0.83657,-0.9 1.39428,-1.3c0.55771,-0.4 0.83656,-0.28 1.39427,-0.7c0.55771,-0.42 0.83657,-0.98 1.39428,-1.4c0.55771,-0.42 0.83656,-0.42 1.39427,-0.7c0.55771,-0.28 0.83657,-0.16 1.39428,-0.7c0.55771,-0.54 0.83656,-1.32 1.39427,-2c0.55771,-0.68 0.83657,-0.58 1.39428,-1.4c0.55771,-0.82 0.83656,-1.88 1.39427,-2.7c0.55771,-0.82 0.83657,-1.4 1.39428,-1.4c0.55771,0 0.83656,0 1.39427,0c0.55771,0 0.83657,-0.3 1.39428,-0.7c0.5577,-0.4 0.83656,-0.76 1.39427,-1.3c0.55771,-0.54 0.83656,-0.72 1.39427,-1.4c0.55771,-0.68 0.83657,-2 1.39428,-2c0.55771,0 0.83656,0 1.39427,0c0.55771,0 0.83657,0.7 1.39428,0.7c0.55771,0 0.83656,-1.28 1.39427,-2.1c0.55771,-0.82 0.83657,-0.9 1.39428,-2c0.55771,-1.1 0.83656,-2.9 1.39427,-3.5c0.55771,-0.6 0.83657,-0.34 1.39428,-0.6c0.55771,-0.26 0.83656,-0.7 1.39427,-0.7c0.55771,0 0.83657,0 1.39428,0c0.5577,0 0.83656,0 1.39427,0c0.55771,0 0.83656,-1.84 1.39427,-2.8c0.55771,-0.96 0.83657,-1.2 1.39428,-2c0.55771,-0.8 0.83656,-1.32 1.39427,-2c0.55771,-0.68 0.83657,-0.58 1.39428,-1.4c0.55771,-0.82 0.83656,-2.02 1.39427,-2.7c0.55771,-0.68 0.83657,-0.28 1.39428,-0.7c0.55771,-0.42 0.83656,-0.72 1.39427,-1.4c0.55771,-0.68 0.83657,-1.46 1.39428,-2c0.55771,-0.54 0.83656,-0.28 1.39427,-0.7c0.55771,-0.42 0.83657,-1.4 1.39428,-1.4c0.55771,0 0.83656,1.4 1.39427,1.4c0.55771,0 0.83656,0 1.39427,0c0.55771,0 0.83657,2 1.39428,2c0.55771,0 0.83656,-0.02 1.39427,-0.7c0.55771,-0.68 0.83657,-2.02 1.39428,-2.7c0.55771,-0.68 0.83656,-0.7 1.39427,-0.7c0.55771,0 0.83657,0.7 1.39428,0.7c0.55771,0 0.83656,-0.7 1.39427,-0.7c0.55771,0 0.83657,0.42 1.39428,0.7c0.55771,0.28 0.83656,0.42 1.39427,0.7c0.55771,0.28 0.83657,0.7 1.39428,0.7c0.55771,0 0.83656,-0.7 1.39427,-0.7c0.55771,0 0.83656,0.7 1.39427,0.7c0.55771,0 0.83657,0 1.39428,0c0.55771,0 0.83656,0 1.39427,0c0.55771,0 0.83657,0 1.39428,0c0.55771,0 0.83656,0 1.39427,0c0.55771,0 0.83657,0.76 1.39428,1.3c0.55771,0.54 0.83656,1.4 1.39427,1.4c0.55771,0 0.83657,-0.7 1.39428,-0.7c0.55771,0 0.83656,0.98 1.39427,1.4c0.55771,0.42 0.83657,0.16 1.39428,0.7c0.55771,0.54 0.83656,1.18 1.39427,2c0.55771,0.82 0.83656,1.28 1.39427,2.1c0.55771,0.82 0.83657,1.32 1.39428,2c0.55771,0.68 0.83656,0.98 1.39427,1.4c0.55771,0.42 0.83657,0.44 1.39428,0.7c0.55771,0.26 0.83656,0.34 1.39427,0.6c0.55771,0.26 0.83657,0.42 1.39428,0.7c0.55771,0.28 0.83656,0.28 1.39427,0.7c0.55771,0.42 0.83657,0.86 1.39428,1.4c0.55771,0.54 0.83656,0.62 1.39427,1.3c0.55771,0.68 0.83657,1.54 1.39428,2.1c0.55771,0.56 0.83656,0.16 1.39427,0.7c0.55771,0.54 0.83656,1.46 1.39427,2c0.55771,0.54 0.83657,0.28 1.39428,0.7c0.55771,0.42 0.83656,0.72 1.39427,1.4c0.55771,0.68 0.83657,1.46 1.39428,2c0.55771,0.54 0.83656,0.28 1.39427,0.7c0.55771,0.42 0.83657,1 1.39428,1.4c0.55771,0.4 0.83656,0.34 1.39427,0.6c0.55771,0.26 0.83657,0.42 1.39428,0.7c0.55771,0.28 0.83656,0.42 1.39427,0.7c0.55771,0.28 0.83657,0.42 1.39428,0.7c0.55771,0.28 0.83656,0.42 1.39427,0.7c0.55771,0.28 0.83656,0.3 1.39427,0.7c0.55771,0.4 0.83657,0.9 1.39428,1.3c0.55771,0.4 0.83656,0.28 1.39427,0.7c0.55771,0.42 0.83657,0.98 1.39428,1.4c0.55771,0.42 0.83656,0.3 1.39427,0.7c0.55771,0.4 0.83657,1.3 1.39428,1.3c0.55771,0 0.83656,0 1.39427,0c0.55771,0 0.83657,0 1.39428,0c0.55771,0 0.83656,0 1.39427,0c0.55771,0 0.83657,-0.44 1.39428,-0.7c0.55771,-0.26 0.83656,-0.34 1.39427,-0.6c0.55771,-0.26 0.83657,-0.28 1.39427,-0.7c0.55771,-0.42 0.83657,-0.84 1.39428,-1.4c0.55771,-0.56 0.83656,-0.86 1.39427,-1.4c0.55771,-0.54 0.83657,-0.76 1.39428,-1.3c0.55771,-0.54 0.83656,-0.72 1.39427,-1.4c0.55771,-0.68 0.83657,-0.78 1.39428,-2c0.55771,-1.22 0.83656,-2.72 1.39427,-4.1c0.55771,-1.38 0.83657,-1.84 1.39428,-2.8c0.55771,-0.96 0.83656,-1.18 1.39427,-2c0.55771,-0.82 0.83657,-1.42 1.39428,-2.1c0.55771,-0.68 0.83656,-0.48 1.39427,-1.3c0.55771,-0.82 0.83657,-1.44 1.39427,-2.8c0.55771,-1.36 0.83657,-4 1.39428,-4c0.55771,0 0.83656,0 1.39427,0c0.55771,0 0.83657,-0.16 1.39428,-1.4c0.55771,-1.24 0.83656,-3.44 1.39427,-4.8c0.55771,-1.36 0.83657,-0.78 1.39428,-2c0.55771,-1.22 0.83656,-2.6 1.39427,-4.1c0.55771,-1.5 0.83657,-3.4 1.39428,-3.4c0.55771,0 0.83656,0.6 1.39427,0.6c0.55771,0 0.83657,-1.08 1.39428,-2.7c0.55771,-1.62 0.83656,-3.9 1.39427,-5.4c0.55771,-1.5 0.83657,-1.14 1.39428,-2.1c0.5577,-0.96 0.83656,-1.2 1.39427,-2.7c0.55771,-1.5 0.83656,-3.3 1.39427,-4.8c0.55771,-1.5 0.83657,-1.88 1.39428,-2.7c0.55771,-0.82 0.83656,-0.58 1.39427,-1.4c0.55771,-0.82 0.83657,-1.34 1.39428,-2.7c0.55771,-1.36 0.83656,-4.1 1.39427,-4.1c0.55771,0 0.83657,0 1.39428,0c0.55771,0 0.83656,1.48 1.39427,2.7c0.55771,1.22 0.83657,3.4 1.39428,3.4c0.55771,0 0.83656,0 1.39427,-1.3c0.55771,-1.3 0.83657,-6.72 1.39428,-9.6c0.55771,-2.88 0.83656,-4.8 1.39427,-4.8c0.55771,0 0.83656,0.72 1.39427,1.4c0.55771,0.68 0.83657,1.04 1.39428,2c0.55771,0.96 0.83656,2.8 1.39427,2.8c0.55771,0 0.83657,-1.64 1.39428,-4.1c0.55771,-2.46 0.83656,-8.2 1.39427,-8.2c0.55771,0 0.83657,6.8 1.39428,6.8c0.55771,0 0.83656,-1.76 1.39427,-3.4c0.55771,-1.64 0.83657,-3.3 1.39428,-4.8c0.55771,-1.5 0.83656,-2.02 1.39427,-2.7c0.55771,-0.68 0.83657,-0.7 1.39428,-0.7c0.55771,0 0.83656,0.5 1.39427,2c0.55771,1.5 0.83656,3.86 1.39427,5.5c0.55771,1.64 0.83657,1.74 1.39428,2.7c0.55771,0.96 0.83656,1.28 1.39427,2.1c0.55771,0.82 0.83657,1.04 1.39428,2c0.55771,0.96 0.83656,2.2 1.39427,2.8c0.55771,0.6 0.83657,0.34 1.39428,0.6c0.55771,0.26 0.83656,0.7 1.39427,0.7c0.55771,0 0.83657,0 1.39428,0c0.55771,0 0.83656,0.98 1.39427,1.4c0.55771,0.42 0.83657,0.3 1.39428,0.7c0.55771,0.4 0.83656,0.48 1.39427,1.3c0.55771,0.82 0.83656,1.98 1.39427,2.8c0.55771,0.82 0.83657,0.36 1.39428,1.3c0.55771,0.94 0.83656,2.44 1.39427,3.4c0.55771,0.96 0.83657,0.7 1.39428,1.4c0.55771,0.7 0.83656,1.28 1.39427,2.1c0.55771,0.82 0.83657,1.32 1.39428,2c0.55771,0.68 0.83656,0.72 1.39427,1.4c0.55771,0.68 0.83657,1.32 1.39428,2c0.55771,0.68 0.83656,0.84 1.39427,1.4c0.55771,0.56 0.83657,1 1.39428,1.4c0.55771,0.4 0.83656,0.34 1.39427,0.6c0.55771,0.26 0.83656,0.14 1.39427,0.7c0.55771,0.56 0.83657,1.56 1.39428,2.1c0.55771,0.54 0.83656,0.6 1.39427,0.6c0.55771,0 0.83657,0 1.39428,0c0.55771,0 0.83656,0.28 1.39427,0.7c0.55771,0.42 0.83657,0.84 1.39428,1.4c0.55771,0.56 0.83656,0.86 1.39427,1.4c0.55771,0.54 0.83657,0.76 1.39428,1.3c0.55771,0.54 0.83656,0.98 1.39427,1.4c0.55771,0.42 0.83657,0.42 1.39428,0.7c0.55771,0.28 0.83656,0.44 1.39427,0.7c0.55771,0.26 0.83656,0.34 1.39427,0.6c0.55771,0.26 0.83657,0.42 1.39428,0.7c0.55771,0.28 0.83656,0.28 1.39427,0.7c0.55771,0.42 0.83657,1 1.39428,1.4c0.55771,0.4 0.83656,0.34 1.39427,0.6c0.55771,0.26 0.83657,0.42 1.39428,0.7c0.55771,0.28 0.83656,0.7 1.39427,0.7c0.55771,0 0.83657,0 1.39428,0c0.55771,0 0.83656,0.42 1.39427,0.7c0.55771,0.28 0.83657,0.42 1.39428,0.7c0.55771,0.28 0.83656,0.7 1.39427,0.7c0.55771,0 0.83657,0 1.39427,0c0.55771,0 0.83657,0 1.39428,0c0.55771,0 0.83656,-0.7 1.39427,-0.7c0.55771,0 0.83657,0 1.39428,0c0.55771,0 0.83656,-0.98 1.39427,-1.4c0.55771,-0.42 0.83657,-0.16 1.39428,-0.7c0.55771,-0.54 0.83656,-1.46 1.39427,-2c0.55771,-0.54 0.83657,-0.02 1.39428,-0.7c0.55771,-0.68 0.83656,-1.6 1.39427,-2.7c0.55771,-1.1 0.83657,-1.42 1.39428,-2.8c0.55771,-1.38 0.83656,-2.88 1.39427,-4.1c0.55771,-1.22 0.83657,-1.2 1.39427,-2c0.55771,-0.8 0.83657,-1.32 1.39428,-2c0.55771,-0.68 0.83656,-0.58 1.39427,-1.4c0.55771,-0.82 0.83657,-1.74 1.39428,-2.7c0.55771,-0.96 0.83656,-1.4 1.39427,-2.1c0.55771,-0.7 0.83657,-0.58 1.39428,-1.4c0.55771,-0.82 0.83656,-1.76 1.39427,-2.7c0.55771,-0.94 0.83657,-0.92 1.39428,-2c0.55771,-1.08 0.83656,-2.3 1.39427,-3.4c0.55771,-1.1 0.83657,-1.14 1.39428,-2.1c0.55771,-0.96 0.83656,-2.02 1.39427,-2.7c0.55771,-0.68 0.83657,0 1.39428,-0.7c0.5577,-0.7 0.83656,-2.44 1.39427,-3.4c0.55771,-0.96 0.83656,-0.72 1.39427,-1.4c0.55771,-0.68 0.83657,-0.92 1.39428,-2c0.55771,-1.08 0.83656,-2.7 1.39427,-3.4c0.55771,-0.7 0.83657,0 1.39428,-0.7c0.55771,-0.7 0.83656,-3 1.39427,-4.1c0.55771,-1.1 0.83657,-0.44 1.39428,-1.4c0.55771,-0.96 0.83656,-2.04 1.39427,-3.4c0.55771,-1.36 0.83657,-2.3 1.39428,-3.4c0.55771,-1.1 0.83656,-2.1 1.39427,-2.1c0.55771,0 0.83657,0 1.39428,0c0.55771,0 0.83656,-0.76 1.39427,-1.3c0.55771,-0.54 0.83656,-0.58 1.39427,-1.4c0.55771,-0.82 0.83657,-1.48 1.39428,-2.7c0.55771,-1.22 0.83656,-2.44 1.39427,-3.4c0.55771,-0.96 0.83657,-0.84 1.39428,-1.4c0.55771,-0.56 0.83656,-0.86 1.39427,-1.4c0.55771,-0.54 0.83657,-0.76 1.39428,-1.3c0.55771,-0.54 0.83656,-0.84 1.39427,-1.4c0.55771,-0.56 0.83657,-0.86 1.39428,-1.4c0.55771,-0.54 0.83656,-0.9 1.39427,-1.3c0.55771,-0.4 0.83657,-0.7 1.39428,-0.7c0.55771,0 0.83656,0 1.39427,0c0.55771,0 0.83656,0 1.39427,0c0.55771,0 0.83657,0 1.39428,0c0.55771,0 0.83656,0.02 1.39427,0.7c0.55771,0.68 0.83657,2.02 1.39428,2.7c0.55771,0.68 0.83656,0 1.39427,0.7c0.55771,0.7 0.83657,3.16 1.39428,4.8c0.55771,1.64 0.83656,2.46 1.39427,3.4c0.55771,0.94 0.83657,0.76 1.39428,1.3c0.55771,0.54 0.83656,0.84 1.39427,1.4c0.55771,0.56 0.83657,0.86 1.39428,1.4c0.55771,0.54 0.83656,0.48 1.39427,1.3c0.55771,0.82 0.83656,1.84 1.39427,2.8c0.55771,0.96 0.83657,1.18 1.39428,2c0.55771,0.82 0.83656,1.28 1.39427,2.1c0.55771,0.82 0.83657,1.06 1.39428,2c0.55771,0.94 0.83656,1.46 1.39427,2.7c0.55771,1.24 0.83657,2.4 1.39428,3.5c0.55771,1.1 0.83656,1.2 1.39427,2c0.55771,0.8 0.83657,1.32 1.39428,2c0.55771,0.68 0.83656,0.84 1.39427,1.4c0.55771,0.56 0.83657,0.98 1.39428,1.4c0.55771,0.42 0.83656,0.44 1.39427,0.7c0.55771,0.26 0.83656,0.2 1.39427,0.6c0.55771,0.4 0.83657,0.98 1.39428,1.4c0.55771,0.42 0.83656,0.42 1.39427,0.7c0.55771,0.28 0.83657,0.16 1.39428,0.7c0.55771,0.54 0.83656,1.46 1.39427,2c0.55771,0.54 0.83657,0.28 1.39428,0.7c0.55771,0.42 0.83656,0.86 1.39427,1.4c0.55771,0.54 0.83657,0.62 1.39428,1.3c0.55771,0.68 0.83656,1.54 1.39427,2.1c0.55771,0.56 0.83657,0.3 1.39428,0.7c0.55771,0.4 0.83656,0.62 1.39427,1.3c0.55771,0.68 0.83656,1.42 1.39427,2.1c0.55771,0.68 0.83657,0.76 1.39428,1.3c0.55771,0.54 0.83656,0.98 1.39427,1.4c0.55771,0.42 0.83657,0.28 1.39428,0.7c0.55771,0.42 0.83656,0.86 1.39427,1.4c0.55771,0.54 0.83657,0.76 1.39428,1.3c0.55771,0.54 0.83656,0.84 1.39427,1.4c0.55771,0.56 0.83657,0.86 1.39428,1.4c0.55771,0.54 0.83656,0.62 1.39427,1.3c0.55771,0.68 0.83657,1.42 1.39428,2.1c0.55771,0.68 0.83656,0.9 1.39427,1.3c0.55771,0.4 0.83657,0.42 1.39427,0.7c0.55771,0.28 0.83657,0.42 1.39428,0.7c0.55771,0.28 0.83656,0.7 1.39427,0.7c0.55771,0 0.83657,-0.42 1.39428,-0.7c0.55771,-0.28 0.83656,-0.42 1.39427,-0.7c0.55771,-0.28 0.83657,-0.7 1.39428,-0.7c0.55771,0 0.83656,0.7 1.39427,0.7c0.55771,0 0.83657,0 1.39428,0c0.55771,0 0.83656,0 1.39427,0c0.55771,0 0.83657,-0.42 1.39428,-0.7c0.55771,-0.28 0.83656,-0.44 1.39427,-0.7c0.55771,-0.26 0.83657,-0.06 1.39427,-0.6c0.55771,-0.54 0.83657,-1.42 1.39428,-2.1c0.55771,-0.68 0.83656,-0.48 1.39427,-1.3c0.55771,-0.82 0.83657,-2.1 1.39428,-2.8c0.55771,-0.7 0.83656,-0.3 1.39427,-0.7c0.55771,-0.4 0.83657,-0.9 1.39428,-1.3c0.55771,-0.4 0.83656,-0.14 1.39427,-0.7c0.55771,-0.56 0.83657,-1.14 1.39428,-2.1c0.55771,-0.96 0.83656,-2.7 1.39427,-2.7c0.55771,0 0.83657,0 1.39428,0c0.55771,0 0.83656,-0.16 1.39427,-0.7c0.55771,-0.54 0.83657,-1.46 1.39428,-2c0.5577,-0.54 0.83656,0 1.39427,-0.7c0.55771,-0.7 0.83656,-2.3 1.39427,-3.4c0.55771,-1.1 0.83657,-1.42 1.39428,-2.1c0.55771,-0.68 0.83656,-0.62 1.39427,-1.3c0.55771,-0.68 0.83657,-1.28 1.39428,-2.1c0.55771,-0.82 0.83656,-1.46 1.39427,-2c0.55771,-0.54 0.83657,-0.28 1.39428,-0.7c0.55771,-0.42 0.83656,-0.44 1.39427,-1.4c0.55771,-0.96 0.83657,-2.46 1.39428,-3.4c0.55771,-0.94 0.83656,-0.62 1.39427,-1.3c0.55771,-0.68 0.83657,-1.54 1.39428,-2.1c0.5577,-0.56 0.83656,-0.42 1.39427,-0.7c0.55771,-0.28 0.83656,-0.7 1.39427,-0.7c0.55771,0 0.83657,0 1.39428,0c0.55771,0 0.83656,-0.2 1.39427,-0.6c0.55771,-0.4 0.83657,-1.4 1.39428,-1.4c0.55771,0 0.83656,0.86 1.39427,1.4c0.55771,0.54 0.83657,1.3 1.39428,1.3c0.55771,0 0.83656,-2.7 1.39427,-3.4c0.55771,-0.7 0.83657,-0.7 1.39428,-0.7c0.55771,0 0.83656,0.44 1.39427,1.4c0.55771,0.96 0.83657,2.44 1.39428,3.4c0.55771,0.96 0.83656,0.72 1.39427,1.4c0.55771,0.68 0.83656,2 1.39427,2c0.55771,0 0.83657,-2.44 1.39428,-3.4c0.55771,-0.96 0.83656,-1 1.39427,-1.4c0.55771,-0.4 0.83657,-0.6 1.39428,-0.6c0.55771,0 0.83656,0.62 1.39427,1.3c0.55771,0.68 0.83657,1.54 1.39428,2.1c0.55771,0.56 0.83656,0.3 1.39427,0.7c0.55771,0.4 0.83657,0.62 1.39428,1.3c0.55771,0.68 0.83656,1.14 1.39427,2.1c0.55771,0.96 0.83657,1.62 1.39428,2.7c0.55771,1.08 0.83656,1.6 1.39427,2.7c0.55771,1.1 0.83656,1.84 1.39427,2.8c0.55771,0.96 0.83657,1.18 1.39428,2c0.55771,0.82 0.83656,1.56 1.39427,2.1c0.55771,0.54 0.83657,0 1.39428,0.6c0.55771,0.6 0.83656,1.7 1.39427,2.8c0.55771,1.1 0.83657,1.76 1.39428,2.7c0.55771,0.94 0.83656,0.9 1.39427,2c0.55771,1.1 0.83657,2.26 1.39428,3.5c0.55771,1.24 0.83656,1.88 1.39427,2.7c0.55771,0.82 0.83657,0.72 1.39428,1.4c0.55771,0.68 0.83656,1.2 1.39427,2c0.55771,0.8 0.83656,1.04 1.39427,2c0.55771,0.96 0.83657,1.98 1.39428,2.8c0.55771,0.82 0.83656,0.62 1.39427,1.3c0.55771,0.68 0.83657,1.28 1.39428,2.1c0.55771,0.82 0.83656,1.32 1.39427,2c0.55771,0.68 0.83657,0.58 1.39428,1.4c0.55771,0.82 0.83656,1.74 1.39427,2.7c0.55771,0.96 0.83657,1.42 1.39428,2.1c0.55771,0.68 0.83656,0.76 1.39427,1.3c0.55771,0.54 0.83657,0.84 1.39428,1.4c0.55771,0.56 0.83656,0.86 1.39427,1.4c0.55771,0.54 0.83656,0.76 1.39427,1.3c0.55771,0.54 0.83657,0.84 1.39428,1.4c0.55771,0.56 0.83656,0.58 1.39427,1.4c0.55771,0.82 0.83657,1.88 1.39428,2.7c0.55771,0.82 0.83656,0.86 1.39427,1.4c0.55771,0.54 0.83657,0.9 1.39428,1.3c0.55771,0.4 0.83656,0.28 1.39427,0.7c0.55771,0.42 0.83657,0.86 1.39428,1.4c0.55771,0.54 0.83656,0.9 1.39427,1.3c0.55771,0.4 0.83657,0.28 1.39428,0.7c0.55771,0.42 0.83656,0.98 1.39427,1.4c0.55771,0.42 0.83656,0.3 1.39427,0.7c0.55771,0.4 0.83657,0.76 1.39428,1.3c0.55771,0.54 0.83656,0.84 1.39427,1.4c0.55771,0.56 0.83657,1 1.39428,1.4c0.55771,0.4 0.83656,0.6 1.39427,0.6c0.55771,0 0.83657,0 1.39428,0c0.55771,0 0.83656,0 1.39427,0c0.55771,0 0.83657,-1.3 1.39428,-1.3c0.55771,0 0.83656,2 1.39427,2c0.55771,0 0.83657,0 1.39428,0c0.55771,0 0.83656,-0.3 1.39427,-0.7c0.55771,-0.4 0.83657,-0.62 1.39427,-1.3c0.55771,-0.68 0.83657,-1.42 1.39428,-2.1c0.55771,-0.68 0.83656,-0.62 1.39427,-1.3c0.55771,-0.68 0.83657,-1.28 1.39428,-2.1c0.55771,-0.82 0.83656,-2 1.39427,-2c0.55771,0 0.83657,0 1.39428,0c0.55771,0 0.83656,-2.1 1.39427,-2.1c0.55771,0 0.83657,0 1.39428,0c0.55771,0 0.83656,-1.74 1.39427,-2.7c0.55771,-0.96 0.83657,-1.56 1.39428,-2.1c0.55771,-0.54 0.83656,-0.06 1.39427,-0.6c0.55771,-0.54 0.83657,-1.28 1.39428,-2.1c0.5577,-0.82 0.83656,-0.92 1.39427,-2c0.55771,-1.08 0.83656,-2.02 1.39427,-3.4c0.55771,-1.38 0.83657,-2.54 1.39428,-3.5c0.55771,-0.96 0.83656,-0.36 1.39427,-1.3c0.55771,-0.94 0.83657,-2.04 1.39428,-3.4c0.55771,-1.36 0.83656,-2.16 1.39427,-3.4c0.55771,-1.24 0.83657,-1.84 1.39428,-2.8c0.55771,-0.96 0.83656,-1.18 1.39427,-2c0.55771,-0.82 0.83657,-1.14 1.39428,-2.1c0.55771,-0.96 0.83656,-1.34 1.39427,-2.7c0.55771,-1.36 0.83657,-3.4 1.39428,-4.1c0.5577,-0.7 0.83656,0 1.39427,-0.7c0.55771,-0.7 0.83656,-4.2 1.39427,-4.8c0.55771,-0.6 0.83657,0 1.39428,-0.6c0.55771,-0.6 0.83656,-2.3 1.39427,-3.4c0.55771,-1.1 0.83657,-1.14 1.39428,-2.1c0.55771,-0.96 0.83656,-1.88 1.39427,-2.7c0.55771,-0.82 0.83657,-0.84 1.39428,-1.4c0.55771,-0.56 0.83656,-0.72 1.39427,-1.4c0.55771,-0.68 0.83657,-0.92 1.39428,-2c0.55771,-1.08 0.83656,-2.44 1.39427,-3.4c0.55771,-0.96 0.83657,-0.72 1.39428,-1.4c0.55771,-0.68 0.83656,-1.32 1.39427,-2c0.55771,-0.68 0.83656,-0.72 1.39427,-1.4c0.55771,-0.68 0.83657,-1.18 1.39428,-2c0.55771,-0.82 0.83656,-2.1 1.39427,-2.1c0.55771,0 0.83657,0 1.39428,0c0.55771,0 0.83656,-0.7 1.39427,-0.7c0.55771,0 0.83657,0 1.39428,0c0.55771,0 0.83656,0 1.39427,0c0.55771,0 0.83657,0 1.39428,0c0.55771,0 0.83656,0.84 1.39427,1.4c0.55771,0.56 0.83657,0.72 1.39428,1.4c0.55771,0.68 0.83656,1.18 1.39427,2c0.55771,0.82 0.83656,2.1 1.39427,2.1c0.55771,0 0.83657,0 1.39428,0c0.55771,0 0.83656,2.7 1.39427,2.7c0.55771,0 0.83657,0 1.39428,0c0.55771,0 0.83656,1.46 1.39427,2c0.55771,0.54 0.83657,0.14 1.39428,0.7c0.55771,0.56 0.83656,1.28 1.39427,2.1c0.55771,0.82 0.83657,1.18 1.39428,2c0.55771,0.82 0.83656,1.28 1.39427,2.1c0.55771,0.82 0.83657,1.06 1.39428,2c0.55771,0.94 0.83656,1.74 1.39427,2.7c0.55771,0.96 0.83656,1.42 1.39427,2.1c0.55771,0.68 0.83657,0.76 1.39428,1.3c0.55771,0.54 0.83656,0.7 1.39427,1.4c0.55771,0.7 0.83657,1.42 1.39428,2.1c0.55771,0.68 0.83656,0.62 1.39427,1.3c0.55771,0.68 0.83657,1.42 1.39428,2.1c0.55771,0.68 0.83656,0.76 1.39427,1.3c0.55771,0.54 0.83657,0.98 1.39428,1.4c0.55771,0.42 0.83656,0.16 1.39427,0.7c0.55771,0.54 0.83657,1.32 1.39428,2c0.55771,0.68 0.83656,1.4 1.39427,1.4c0.55771,0 0.83656,0 1.39427,0c0.55771,0 0.83657,0 1.39428,0c0.55771,0 0.83656,0.42 1.39427,0.7c0.55771,0.28 0.83657,0.44 1.39428,0.7c0.55771,0.26 0.83656,0.34 1.39427,0.6c0.55771,0.26 0.83657,0.7 1.39428,0.7c0.55771,0 0.83656,0 1.39427,0c0.55771,0 0.83657,0.84 1.39428,1.4c0.55771,0.56 0.83656,1 1.39427,1.4c0.55771,0.4 0.83657,0.2 1.39428,0.6c0.55771,0.4 0.83656,1.4 1.39427,1.4c0.55771,0 0.83656,0 1.39427,0c0.55771,0 0.83657,0.28 1.39428,0.7c0.55771,0.42 0.83656,1 1.39427,1.4c0.55771,0.4 0.83657,0.34 1.39428,0.6c0.55771,0.26 0.83656,0.42 1.39427,0.7c0.55771,0.28 0.83657,0.7 1.39428,0.7c0.55771,0 0.83656,0 1.39427,0c0.55771,0 0.83657,0 1.39428,0c0.55771,0 0.83656,1.4 1.39427,1.4c0.55771,0 0.83657,0 1.39428,0c0.55771,0 0.83656,-0.42 1.39427,-0.7c0.55771,-0.28 0.83657,-0.28 1.39427,-0.7c0.55771,-0.42 0.83657,-0.86 1.39428,-1.4c0.55771,-0.54 0.83656,-0.76 1.39427,-1.3c0.55771,-0.54 0.83657,-0.58 1.39428,-1.4c0.55771,-0.82 0.83656,-1.48 1.39427,-2.7c0.55771,-1.22 0.83657,-1.9 1.39428,-3.4c0.55771,-1.5 0.83656,-2.6 1.39427,-4.1c0.55771,-1.5 0.83657,-3.4 1.39428,-3.4c0.55771,0 0.83656,0.6 1.39427,0.6c0.55771,0 0.83657,-0.78 1.39428,-2c0.55771,-1.22 0.83656,-2.74 1.39427,-4.1c0.55771,-1.36 0.83657,-1.34 1.39428,-2.7c0.5577,-1.36 0.83656,-2.46 1.39427,-4.1c0.55771,-1.64 0.83656,-2.6 1.39427,-4.1c0.55771,-1.5 0.83657,-1.9 1.39428,-3.4c0.55771,-1.5 0.83656,-2.32 1.39427,-4.1c0.55771,-1.78 0.83657,-3.16 1.39428,-4.8c0.55771,-1.64 0.83656,-1.48 1.39427,-3.4c0.55771,-1.92 0.83657,-3.6 1.39428,-6.2c0.55771,-2.6 0.83656,-4.9 1.39427,-6.8c0.55771,-1.9 0.83657,-1.48 1.39428,-2.7c0.55771,-1.22 0.83656,-2.44 1.39427,-3.4c0.55771,-0.96 0.83657,-0.3 1.39428,-1.4c0.5577,-1.1 0.83656,-2.88 1.39427,-4.1c0.55771,-1.22 0.83656,-2 1.39427,-2c0.55771,0 0.83657,0.6 1.39428,0.6c0.55771,0 0.83656,-2.04 1.39427,-3.4c0.55771,-1.36 0.83657,-2.7 1.39428,-3.4c0.55771,-0.7 0.83656,-0.16 1.39427,-0.7c0.55771,-0.54 0.83657,-1.18 1.39428,-2c0.55771,-0.82 0.83656,-1.28 1.39427,-2.1c0.55771,-0.82 0.83657,-1.18 1.39428,-2c0.55771,-0.82 0.83656,-1.42 1.39427,-2.1c0.55771,-0.68 0.83657,-0.76 1.39428,-1.3c0.55771,-0.54 0.83656,-1.4 1.39427,-1.4c0.55771,0 0.83656,0.7 1.39427,0.7c0.55771,0 0.83657,-0.7 1.39428,-0.7c0.55771,0 0.83656,0.7 1.39427,0.7c0.55771,0 0.83657,-0.7 1.39428,-0.7c0.55771,0 0.83656,0 1.39427,0.7c0.55771,0.7 0.83657,1.92 1.39428,4.1c0.55771,2.18 0.83656,4.34 1.39427,6.8c0.55771,2.46 0.83657,3.44 1.39428,5.5c0.55771,2.06 0.83656,3.02 1.39427,4.8c0.55771,1.78 0.83657,2.74 1.39428,4.1c0.55771,1.36 0.83656,2.02 1.39427,2.7c0.55771,0.68 0.83656,0 1.39427,0.7c0.55771,0.7 0.83657,6.66 1.39428,10.2c0.55771,3.54 0.83656,4.5 1.39427,7.5c0.55771,3 0.83657,6.1 1.39428,7.5c0.55771,1.4 0.83656,0.58 1.39427,1.4c0.55771,0.82 0.83657,1.74 1.39428,2.7c0.55771,0.96 0.83656,0.46 1.39427,2.1c0.55771,1.64 0.83657,3.92 1.39428,6.1c0.55771,2.18 0.83656,3.02 1.39427,4.8c0.55771,1.78 0.83657,3.02 1.39428,4.1c0.55771,1.08 0.83656,0.62 1.39427,1.3c0.55771,0.68 0.83656,1 1.39427,2.1c0.55771,1.1 0.83657,2.44 1.39428,3.4c0.55771,0.96 0.83656,0.72 1.39427,1.4c0.55771,0.68 0.83657,1.06 1.39428,2c0.55771,0.94 0.83656,1.88 1.39427,2.7c0.55771,0.82 0.83657,0.84 1.39428,1.4c0.55771,0.56 0.83656,0.72 1.39427,1.4c0.55771,0.68 0.83657,1.46 1.39428,2c0.55771,0.54 0.83656,0.28 1.39427,0.7c0.55771,0.42 0.83657,0.86 1.39428,1.4c0.55771,0.54 0.83656,0.9 1.39427,1.3c0.55771,0.4 0.83656,0.28 1.39427,0.7c0.55771,0.42 0.83657,0.98 1.39428,1.4c0.55771,0.42 0.83656,0.7 1.39427,0.7c0.55771,0 0.83657,0 1.39428,0c0.55771,0 0.83656,0.9 1.39427,1.3c0.55771,0.4 0.83657,0.42 1.39428,0.7c0.55771,0.28 0.83656,0.28 1.39427,0.7c0.55771,0.42 0.83657,0.86 1.39428,1.4c0.55771,0.54 0.83656,0.9 1.39427,1.3c0.55771,0.4 0.83657,0.28 1.39428,0.7c0.55771,0.42 0.83656,1.4 1.39427,1.4c0.55771,0 0.83656,0 1.39427,0c0.55771,0 0.83657,0.34 1.39428,0.6c0.55771,0.26 0.83656,0.7 1.39427,0.7c0.55771,0 0.83657,0 1.39428,0c0.55771,0 0.83656,0.7 1.39427,0.7c0.55771,0 0.83657,0 1.39428,0c0.55771,0 0.83656,0.7 1.39427,0.7c0.55771,0 0.83657,0 1.39428,0c0.55771,0 0.83656,0.7 1.39427,0.7c0.55771,0 1.39428,0 1.39428,0" fill="none"/>
 </g>
</svg>
